<?xml version="1.0" encoding="UTF-8" standalone="no"?>
<!-- Created with Inkscape (http://www.inkscape.org/) -->

<svg
   xmlns:dc="http://purl.org/dc/elements/1.1/"
   xmlns:cc="http://creativecommons.org/ns#"
   xmlns:rdf="http://www.w3.org/1999/02/22-rdf-syntax-ns#"
   xmlns:svg="http://www.w3.org/2000/svg"
   xmlns="http://www.w3.org/2000/svg"
   xmlns:sodipodi="http://sodipodi.sourceforge.net/DTD/sodipodi-0.dtd"
   xmlns:inkscape="http://www.inkscape.org/namespaces/inkscape"
   width="20"
   height="20"
   viewBox="0 0 5.2916666 5.2916668"
   version="1.1"
   id="svg8"
   inkscape:version="0.92.2 (5c3e80d, 2017-08-06)"
   sodipodi:docname="zastavka_kordis.svg">
  <defs
     id="defs2" />
  <sodipodi:namedview
     id="base"
     pagecolor="#ffffff"
     bordercolor="#666666"
     borderopacity="1.0"
     inkscape:pageopacity="0.0"
     inkscape:pageshadow="2"
     inkscape:zoom="15.839192"
     inkscape:cx="6.5148546"
     inkscape:cy="4.8962576"
     inkscape:document-units="mm"
     inkscape:current-layer="layer1"
     showgrid="false"
     units="px"
     inkscape:window-width="1920"
     inkscape:window-height="1013"
     inkscape:window-x="-9"
     inkscape:window-y="-9"
     inkscape:window-maximized="1" />
  <metadata
     id="metadata5">
    <rdf:RDF>
      <cc:Work
         rdf:about="">
        <dc:format>image/svg+xml</dc:format>
        <dc:type
           rdf:resource="http://purl.org/dc/dcmitype/StillImage" />
        <dc:title></dc:title>
      </cc:Work>
    </rdf:RDF>
  </metadata>
  <g
     inkscape:label="Vrstva 1"
     inkscape:groupmode="layer"
     id="layer1"
     transform="translate(0,-291.70832)">
    <path
       sodipodi:nodetypes="ccccccccccscccccsccsssssccscscccccscccccsscccccccccc"
       inkscape:connector-curvature="0"
       id="path818"
       d="m 1.2974945,296.52228 c -0.1135512,-0.0305 -0.2351473,-0.12755 -0.289391,-0.23089 -0.0347414,-0.0661 -0.0554079,-0.15478 -0.051853,-0.22224 l 0.002772,-0.0526 -0.11108086,-0.0228 c -0.13958373,-0.0288 -0.20272075,-0.0588 -0.28196315,-0.13419 -0.06594,-0.0626 -0.10594737,-0.12282 -0.13989343,-0.21022 l -0.0223776,-0.0576 -0.002651,-0.52715 -0.002651,-0.52715 0.0324638,-0.005 c 0.0680849,-0.0109 0.1065981,-0.0246 0.14450995,-0.0516 0.051624,-0.0368 0.0942103,-0.098 0.10598352,-0.15234 0.006628,-0.0305 0.008676,-0.21302 0.006869,-0.59504 l -0.002651,-0.5511 -0.019594,-0.0368 c -0.0458278,-0.0858 -0.12671748,-0.14327 -0.21732224,-0.15432 l -0.0450445,-0.006 -0.00241,-0.0867 c -0.00482,-0.1723 0.0401279,-0.29265 0.1515474,-0.40572 0.0957527,-0.0971 0.14375316,-0.11773 0.38568722,-0.16514 0.43975629,-0.0862 0.84272749,-0.1353 1.30649909,-0.15921 0.2155268,-0.0109 0.8042553,-0.006 0.9911454,0.01 0.4370292,0.0346 0.8063749,0.0851 1.1962111,0.16329 0.087341,0.0176 0.1415371,0.0336 0.1837027,0.0543 0.1163952,0.0572 0.212889,0.16937 0.2557836,0.29714 0.019196,0.0571 0.021908,0.0795 0.021908,0.18005 v 0.11484 l -0.045816,0.005 c -0.06218,0.006 -0.123335,0.0393 -0.1702412,0.0915 -0.06911,0.0769 -0.066687,0.0506 -0.064,0.6931 l 0.00241,0.56741 0.01928,0.036 c 0.010604,0.0199 0.03103,0.0494 0.045394,0.0658 0.031729,0.0361 0.1200102,0.0818 0.1581499,0.0818 0.059481,0 0.05489,-0.0444 0.054769,0.52852 -9.64e-5,0.56935 5.254e-4,0.56114 -0.05307,0.66761 -0.017895,0.0355 -0.051118,0.079 -0.092077,0.12056 -0.092342,0.0936 -0.1516859,0.12075 -0.3480345,0.1593 l -0.152697,0.03 -9.086e-4,0.0581 c -0.00385,0.24798 -0.2104378,0.44387 -0.468158,0.44387 -0.2152773,0 -0.3941152,-0.13239 -0.4526081,-0.33505 -0.013183,-0.0457 -0.015557,-0.0486 -0.037067,-0.0449 -0.063204,0.0108 -0.39114,0.0211 -0.652397,0.0208 -0.2653239,-1.7e-4 -0.3667596,-0.004 -0.6574822,-0.0219 l -0.090692,-0.006 -0.00602,0.0331 c -0.00337,0.0183 -0.019835,0.0621 -0.036657,0.0972 -0.054588,0.11436 -0.1723838,0.21066 -0.2974709,0.24325 -0.062614,0.0164 -0.189323,0.0162 -0.2507429,-6.1e-4 z"
       style="fill:#ffffff;stroke:#ffffff;stroke-width:0.70644379;stroke-miterlimit:4;stroke-dasharray:none" />
    <path
       style="fill:#000000;stroke:none;stroke-width:0.00854436"
       d="m 1.2974945,296.52228 c -0.1135512,-0.0305 -0.2351473,-0.12755 -0.289391,-0.23089 -0.0347414,-0.0661 -0.0554079,-0.15478 -0.051853,-0.22224 l 0.002772,-0.0526 -0.11108086,-0.0228 c -0.13958373,-0.0288 -0.20272075,-0.0588 -0.28196315,-0.13419 -0.06594,-0.0626 -0.10594737,-0.12282 -0.13989343,-0.21022 l -0.0223776,-0.0576 -0.002651,-0.52715 -0.002651,-0.52715 0.0324638,-0.005 c 0.0680849,-0.0109 0.1065981,-0.0246 0.14450995,-0.0516 0.051624,-0.0368 0.0942103,-0.098 0.10598352,-0.15234 0.006628,-0.0305 0.008676,-0.21302 0.006869,-0.59504 l -0.002651,-0.5511 -0.019594,-0.0368 c -0.0458278,-0.0858 -0.12671748,-0.14327 -0.21732224,-0.15432 l -0.0450445,-0.006 -0.00241,-0.0867 c -0.00482,-0.1723 0.0401279,-0.29265 0.1515474,-0.40572 0.0957527,-0.0971 0.14375316,-0.11773 0.38568722,-0.16514 0.43975629,-0.0862 0.84272749,-0.1353 1.30649909,-0.15921 0.2155268,-0.0109 0.8042553,-0.006 0.9911454,0.01 0.4370292,0.0346 0.8063749,0.0851 1.1962111,0.16329 0.087341,0.0176 0.1415371,0.0336 0.1837027,0.0543 0.1163952,0.0572 0.212889,0.16937 0.2557836,0.29714 0.019196,0.0571 0.021908,0.0795 0.021908,0.18005 v 0.11484 l -0.045816,0.005 c -0.06218,0.006 -0.123335,0.0393 -0.1702412,0.0915 -0.06911,0.0769 -0.066687,0.0506 -0.064,0.6931 l 0.00241,0.56741 0.01928,0.036 c 0.010604,0.0199 0.03103,0.0494 0.045394,0.0658 0.031729,0.0361 0.1200102,0.0818 0.1581499,0.0818 0.059481,0 0.05489,-0.0444 0.054769,0.52852 -9.64e-5,0.56935 5.254e-4,0.56114 -0.05307,0.66761 -0.017895,0.0355 -0.051118,0.079 -0.092077,0.12056 -0.092342,0.0936 -0.1516859,0.12075 -0.3480345,0.1593 l -0.152697,0.03 -9.086e-4,0.0581 c -0.00385,0.24798 -0.2104378,0.44387 -0.468158,0.44387 -0.2152773,0 -0.3941152,-0.13239 -0.4526081,-0.33505 -0.013183,-0.0457 -0.015557,-0.0486 -0.037067,-0.0449 -0.063204,0.0108 -0.39114,0.0211 -0.652397,0.0208 -0.2653239,-1.7e-4 -0.3667596,-0.004 -0.6574822,-0.0219 l -0.090692,-0.006 -0.00602,0.0331 c -0.00337,0.0183 -0.019835,0.0621 -0.036657,0.0972 -0.054588,0.11436 -0.1723838,0.21066 -0.2974709,0.24325 -0.062614,0.0164 -0.189323,0.0162 -0.2507429,-6.1e-4 z m 0.00928,-2.00946 c 0.058276,-0.0257 0.1120328,-0.0794 0.1383581,-0.13809 l 0.022691,-0.0506 -0.00228,-0.58811 -0.00229,-0.58811 -0.019955,-0.0384 c -0.027005,-0.0521 -0.073797,-0.0993 -0.1252991,-0.12669 -0.037104,-0.0196 -0.052829,-0.0226 -0.1196247,-0.0226 -0.067289,0 -0.082473,0.002 -0.1214718,0.0233 -0.059204,0.0311 -0.10228408,0.0755 -0.12956384,0.13375 l -0.0223897,0.0477 v 0.58101 0.58102 l 0.0223294,0.047 c 0.0354283,0.0746 0.10632084,0.13464 0.18273994,0.15483 0.042526,0.0109 0.1338236,0.002 0.1767978,-0.016 z m 1.3690491,-6e-5 c 0.093234,-0.043 0.1685808,-0.13247 0.2015989,-0.23936 0.016063,-0.052 0.016955,-0.0799 0.01675,-0.52182 -1.302e-4,-0.28365 -0.00361,-0.48164 -0.0088,-0.50441 -0.025438,-0.11038 -0.1214454,-0.22812 -0.2173632,-0.26662 -0.050985,-0.0205 -0.053034,-0.0206 -0.3716798,-0.0206 h -0.320404 l -0.057601,0.0272 c -0.1052967,0.0499 -0.1814482,0.15065 -0.2078061,0.275 -0.015268,0.072 -0.017762,0.88255 -0.00301,0.96264 0.025631,0.13866 0.1203477,0.25424 0.2456649,0.29979 0.024306,0.009 0.1032843,0.0108 0.3559227,0.01 0.3173878,-0.002 0.3256303,-0.002 0.3667259,-0.0213 z m 1.4697138,-0.005 c 0.096427,-0.0452 0.1585173,-0.114 0.202223,-0.22406 l 0.020353,-0.0512 0.00277,-0.44811 c 0.00193,-0.31223 -2.82e-4,-0.46592 -0.00723,-0.50685 -0.02662,-0.15783 -0.1469429,-0.2859 -0.2941763,-0.31312 -0.061976,-0.0121 -0.569972,-0.0125 -0.6383497,-9.7e-4 -0.1044893,0.0171 -0.2002432,0.0875 -0.2525192,0.18555 -0.052998,0.0994 -0.053552,0.10581 -0.05301,0.60069 4.242e-4,0.39578 0.00229,0.45556 0.015171,0.50514 0.03432,0.13149 0.1418214,0.24406 0.2610255,0.27335 0.014653,0.004 0.1765894,0.006 0.3598656,0.005 l 0.3332292,-9.7e-4 z"
       id="path4537"
       inkscape:connector-curvature="0"
       sodipodi:nodetypes="ccccccccccscccccsccsssssccscscccccscccccsscccccccccccccccccsccccccccccscccscssccccccccccscccccccc" />
  </g>
</svg>
