<?xml version="1.0" encoding="UTF-8" standalone="no"?>
<!-- Created with Inkscape (http://www.inkscape.org/) -->

<svg
   xmlns:dc="http://purl.org/dc/elements/1.1/"
   xmlns:cc="http://creativecommons.org/ns#"
   xmlns:rdf="http://www.w3.org/1999/02/22-rdf-syntax-ns#"
   xmlns:svg="http://www.w3.org/2000/svg"
   xmlns="http://www.w3.org/2000/svg"
   xmlns:sodipodi="http://sodipodi.sourceforge.net/DTD/sodipodi-0.dtd"
   xmlns:inkscape="http://www.inkscape.org/namespaces/inkscape"
   width="30"
   height="30"
   viewBox="0 0 7.9374997 7.9375005"
   version="1.1"
   id="svg8"
   inkscape:version="0.92.2 (5c3e80d, 2017-08-06)"
   sodipodi:docname="zastavka_kordis_100_100_negative.svg">
  <defs
     id="defs2" />
  <sodipodi:namedview
     id="base"
     pagecolor="#ffffff"
     bordercolor="#666666"
     borderopacity="1.0"
     inkscape:pageopacity="0.0"
     inkscape:pageshadow="2"
     inkscape:zoom="11.2"
     inkscape:cx="11.476552"
     inkscape:cy="18.627225"
     inkscape:document-units="mm"
     inkscape:current-layer="layer2"
     showgrid="false"
     units="px"
     inkscape:window-width="1920"
     inkscape:window-height="1013"
     inkscape:window-x="-9"
     inkscape:window-y="-9"
     inkscape:window-maximized="1" />
  <metadata
     id="metadata5">
    <rdf:RDF>
      <cc:Work
         rdf:about="">
        <dc:format>image/svg+xml</dc:format>
        <dc:type
           rdf:resource="http://purl.org/dc/dcmitype/StillImage" />
        <dc:title></dc:title>
      </cc:Work>
    </rdf:RDF>
  </metadata>
  <g
     inkscape:groupmode="layer"
     id="layer2"
     inkscape:label="terÄ"
     transform="translate(0,-1.3229166)">
    <rect
       ry="0"
       y="1.7523626"
       x="0.42944551"
       height="7.078608"
       width="7.078609"
       id="rect818"
       style="opacity:1;fill:#ffffff;fill-opacity:1;fill-rule:nonzero;stroke:#333333;stroke-width:0.26727733;stroke-linecap:butt;stroke-linejoin:miter;stroke-miterlimit:4;stroke-dasharray:none;stroke-dashoffset:1.87086618;stroke-opacity:1;paint-order:stroke fill markers" />
    <rect
       style="opacity:1;fill:#ffffff;fill-opacity:1;fill-rule:nonzero;stroke:#3771c8;stroke-width:1.39999998;stroke-linecap:butt;stroke-linejoin:miter;stroke-miterlimit:4;stroke-dasharray:none;stroke-dashoffset:1.87086618;stroke-opacity:1;paint-order:stroke fill markers"
       id="rect814"
       width="5.6875339"
       height="5.6875339"
       x="1.1249831"
       y="2.4514434"
       ry="0" />
  </g>
  <g
     inkscape:label="Vrstva 1"
     inkscape:groupmode="layer"
     id="layer1"
     transform="translate(0,-289.06248)">
    <path
       sodipodi:nodetypes="ccccccccccscccccsccsssssccscscccccscccccsscccccccccc"
       inkscape:connector-curvature="0"
       id="path818"
       d="m 3.1504652,294.32363 c -0.068913,-0.0185 -0.1427079,-0.0774 -0.1756277,-0.14013 -0.021084,-0.0401 -0.033627,-0.0939 -0.031469,-0.13488 l 0.00168,-0.0319 -0.067414,-0.0138 c -0.084712,-0.0175 -0.1230286,-0.0357 -0.1711197,-0.0815 -0.040018,-0.038 -0.064298,-0.0745 -0.0849,-0.12758 l -0.013581,-0.035 -0.00161,-0.31993 -0.00161,-0.31992 0.019702,-0.003 c 0.04132,-0.007 0.064693,-0.0149 0.087702,-0.0313 0.03133,-0.0224 0.057175,-0.0595 0.06432,-0.0925 0.00402,-0.0185 0.00526,-0.12927 0.00417,-0.36112 l -0.00161,-0.33446 -0.011892,-0.0224 c -0.027812,-0.0521 -0.076903,-0.0869 -0.13189,-0.0936 l -0.027337,-0.004 -0.00147,-0.0526 c -0.00292,-0.10456 0.024353,-0.1776 0.091972,-0.24622 0.058111,-0.0589 0.087242,-0.0714 0.2340686,-0.10022 0.2668824,-0.0524 0.5114404,-0.0822 0.7928973,-0.0966 0.1308004,-0.007 0.4880921,-0.004 0.6015133,0.006 0.2652273,0.021 0.4893784,0.0516 0.7259649,0.0991 0.053006,0.0107 0.085897,0.0204 0.1114868,0.033 0.070639,0.0347 0.1291996,0.10279 0.1552317,0.18034 0.01165,0.0347 0.013296,0.0482 0.013296,0.10926 v 0.0697 l -0.027805,0.003 c -0.037736,0.004 -0.07485,0.0239 -0.1033171,0.0556 -0.041942,0.0467 -0.040472,0.0307 -0.038841,0.42064 l 0.00147,0.34435 0.011701,0.0218 c 0.00644,0.012 0.018832,0.03 0.027549,0.0399 0.019256,0.0219 0.072833,0.0496 0.095979,0.0496 0.036099,0 0.033312,-0.027 0.033239,0.32074 -5.86e-5,0.34554 3.188e-4,0.34056 -0.032207,0.40517 -0.010861,0.0215 -0.031023,0.0479 -0.055881,0.0731 -0.056041,0.0568 -0.092056,0.0733 -0.2112176,0.0967 l -0.09267,0.0182 -5.514e-4,0.0352 c -0.00234,0.15049 -0.127712,0.26937 -0.284119,0.26937 -0.1306491,0 -0.2391834,-0.0804 -0.274682,-0.20334 -0.008,-0.0277 -0.00944,-0.0295 -0.022496,-0.0272 -0.038358,0.007 -0.2373777,0.0128 -0.3959312,0.0126 -0.1610217,-1e-4 -0.2225816,-0.003 -0.3990174,-0.0133 l -0.05504,-0.004 -0.00366,0.0201 c -0.00205,0.0111 -0.012037,0.0377 -0.022246,0.059 -0.033129,0.0694 -0.1046175,0.12784 -0.1805312,0.14763 -0.038,0.01 -0.1148976,0.01 -0.1521726,-3.8e-4 z"
       style="fill:#ffffff;stroke:#ffffff;stroke-width:0.42873156;stroke-miterlimit:4;stroke-dasharray:none" />
    <path
       style="fill:#000000;stroke:none;stroke-width:0.00518546"
       d="m 3.150314,294.3255 c -0.068913,-0.0185 -0.1427077,-0.0774 -0.1756276,-0.14012 -0.021084,-0.0401 -0.033627,-0.0939 -0.031469,-0.13487 l 0.00168,-0.032 -0.067414,-0.0138 c -0.084712,-0.0175 -0.1230285,-0.0357 -0.1711197,-0.0814 -0.040018,-0.038 -0.064298,-0.0745 -0.0849,-0.12758 l -0.013581,-0.035 -0.00161,-0.31992 -0.00161,-0.31992 0.019702,-0.003 c 0.04132,-0.007 0.064693,-0.0149 0.087702,-0.0313 0.03133,-0.0224 0.057175,-0.0595 0.06432,-0.0925 0.00402,-0.0185 0.00526,-0.12929 0.00417,-0.36113 l -0.00161,-0.33445 -0.011892,-0.0224 c -0.027813,-0.0521 -0.076903,-0.0869 -0.13189,-0.0936 l -0.027337,-0.004 -0.00147,-0.0526 c -0.00292,-0.10456 0.024354,-0.1776 0.091973,-0.24622 0.058111,-0.0589 0.087242,-0.0714 0.2340685,-0.10023 0.2668824,-0.0523 0.5114404,-0.0821 0.7928973,-0.0966 0.1308004,-0.007 0.4880921,-0.004 0.6015133,0.006 0.2652273,0.021 0.4893785,0.0516 0.7259649,0.0991 0.053006,0.0107 0.085897,0.0204 0.1114868,0.033 0.070639,0.0347 0.1291996,0.10278 0.1552318,0.18032 0.01165,0.0347 0.013296,0.0482 0.013296,0.10928 v 0.0696 l -0.027805,0.003 c -0.037736,0.004 -0.07485,0.0239 -0.1033172,0.0555 -0.041942,0.0467 -0.040472,0.0307 -0.03884,0.42063 l 0.00147,0.34436 0.011701,0.0218 c 0.00644,0.012 0.018832,0.03 0.027549,0.0399 0.019256,0.0219 0.072832,0.0496 0.095979,0.0496 0.036099,0 0.033312,-0.027 0.033238,0.32075 -5.85e-5,0.34553 3.188e-4,0.34055 -0.032207,0.40516 -0.01086,0.0215 -0.031023,0.0479 -0.055881,0.0731 -0.056041,0.0568 -0.092056,0.0733 -0.2112176,0.0967 l -0.09267,0.0182 -5.514e-4,0.0352 c -0.00234,0.1505 -0.127712,0.26938 -0.2841191,0.26938 -0.1306489,0 -0.2391834,-0.0804 -0.2746819,-0.20333 -0.008,-0.0277 -0.00944,-0.0295 -0.022495,-0.0273 -0.038358,0.007 -0.2373778,0.0128 -0.3959312,0.0126 -0.1610217,-10e-5 -0.2225817,-0.003 -0.3990174,-0.0132 l -0.055039,-0.004 -0.00366,0.0201 c -0.00205,0.0111 -0.012037,0.0377 -0.022246,0.059 -0.033129,0.0694 -0.1046175,0.12785 -0.1805312,0.14762 -0.038,0.01 -0.1148976,0.01 -0.1521726,-3.7e-4 z m 0.00563,-1.21951 c 0.035367,-0.0156 0.067991,-0.0482 0.083967,-0.0838 l 0.01377,-0.0307 -0.00138,-0.35691 -0.00139,-0.35692 -0.012111,-0.0233 c -0.016389,-0.0316 -0.044786,-0.0602 -0.076042,-0.0769 -0.022518,-0.0119 -0.032061,-0.0137 -0.072599,-0.0137 -0.040837,0 -0.050052,9.4e-4 -0.07372,0.0141 -0.03593,0.0189 -0.062075,0.0458 -0.078631,0.0812 l -0.013588,0.029 v 0.35261 0.35261 l 0.013551,0.0285 c 0.021501,0.0453 0.064525,0.0817 0.1109025,0.094 0.025809,0.007 0.081215,9.4e-4 0.1072963,-0.01 z m 0.8308581,-3e-5 c 0.056583,-0.0261 0.1023095,-0.0804 0.1223478,-0.14527 0.00975,-0.0316 0.01029,-0.0485 0.010165,-0.31669 -7.9e-5,-0.17214 -0.00219,-0.2923 -0.00534,-0.30611 -0.015438,-0.067 -0.073704,-0.13845 -0.1319148,-0.16182 -0.030942,-0.0124 -0.032186,-0.0125 -0.2255676,-0.0125 H 3.562045 l -0.034957,0.0165 c -0.063904,0.0303 -0.1101185,0.0915 -0.1261148,0.1669 -0.00927,0.0437 -0.01078,0.53561 -0.00182,0.58421 0.015555,0.0841 0.073037,0.15431 0.1490909,0.18195 0.014751,0.006 0.062682,0.007 0.2160048,0.006 0.1926186,-9.4e-4 0.1976208,-9.4e-4 0.2225613,-0.013 z m 0.8919501,-0.003 c 0.058521,-0.0274 0.096202,-0.0692 0.1227266,-0.13598 l 0.012352,-0.0311 0.00168,-0.27194 c 0.00117,-0.1895 -1.712e-4,-0.28276 -0.00439,-0.3076 -0.016155,-0.0958 -0.089177,-0.17352 -0.1785318,-0.19003 -0.037613,-0.008 -0.3459086,-0.008 -0.3874061,-5.9e-4 -0.063413,0.0103 -0.121525,0.0531 -0.1532506,0.1126 -0.032164,0.0604 -0.0325,0.0642 -0.032171,0.36455 2.574e-4,0.2402 0.00139,0.27648 0.00921,0.30657 0.020828,0.0798 0.086069,0.14812 0.158413,0.16589 0.00889,0.003 0.1071697,0.004 0.2183977,0.003 l 0.2022325,-5.9e-4 z"
       id="path4537"
       inkscape:connector-curvature="0"
       sodipodi:nodetypes="ccccccccccscccccsccsssssccscscccccscccccsscccccccccccccccccsccccccccccscccscssccccccccccscccccccc" />
  </g>
</svg>
